<svg xmlns="http://www.w3.org/2000/svg" viewBox="0 0 250 250" enable-background="new 0 0 250 250"><path fill="#231F20" d="M249.819 85.048c-.837-4.555-4.112-6.743-7.588-9.06-3.998-2.665-7.996-5.33-11.993-7.996l-40.056-26.704-41.197-27.465c-4.473-2.982-8.946-5.964-13.42-8.946-2.276-1.518-4.738-3.573-7.381-4.394-4.938-1.534-8.584.95-12.376 3.477l-12.239 8.159-40.261 26.841c-13.674 9.116-27.348 18.232-41.021 27.348l-13.189 8.793c-2.267 1.511-5.017 2.965-6.739 5.121-3.076 3.851-2.36 9.161-2.36 13.777v66.634c0 1.438-.074 2.901.184 4.321.559 3.08 2.379 5.545 4.927 7.289 2.534 1.734 5.112 3.408 7.667 5.111l35.967 23.978 43.194 28.796 26.079 17.386c1.302.868 2.592 1.679 4.133 2.103 3.304.909 6.538.08 9.325-1.766 2.755-1.825 5.5-3.667 8.25-5.5 12.187-8.125 24.374-16.25 36.562-24.374l43.027-28.685 25.152-16.768c1.48-.987 2.828-2.112 3.808-3.63 1.412-2.189 1.726-4.611 1.726-7.132v-65.596c0-3.607.428-7.539-.181-11.118zm-124.819 65.367c-11.09-7.418-22.18-14.836-33.271-22.254l-4.724-3.159 33.35-22.308 3.075-2.057c.331-.222 1.09-.972 1.502-1.005.732-.058 2.419 1.528 3.034 1.94 6.501 4.348 13.002 8.697 19.504 13.045l15.527 10.385-33.273 22.254-4.724 3.159zm-10.742-69.488c-4.42 2.956-8.84 5.912-13.26 8.869-7.868 5.262-15.736 10.524-23.604 15.787-2.64 1.766-5.28 3.532-7.92 5.297-.393.263-1.188 1.052-1.669 1.116-.278.037-.379-.09-.68-.291-6.241-4.162-12.47-8.341-18.705-12.511l-11.428-7.644-4.185-2.799c-.664-.444-1.927-.967-2.409-1.612-.062-.083-.222-.149-.311-.208l8.399-5.599 20.049-13.366 24.363-16.242 20.969-13.979 6.95-4.634 2.164-1.443c.202-.135.884-.771 1.133-.755l.143-.095v50.109zm-65.898 44.075c-7.836 5.242-15.673 10.484-23.509 15.725l-3.365 2.251v-35.954l23.509 15.726 3.365 2.251zm19.322 12.925l14.33 9.584 24.394 16.315 7.077 4.733c.221.148.662.339.774.569.21.432 0 1.5 0 1.967v44.881c0 .833.216 2.007 0 2.817-.03.113 0 .274 0 .393l-8.399-5.599-20.049-13.366-24.363-16.242-20.969-13.98-6.95-4.634-2.164-1.443c-.214-.143-1.038-.509-1.133-.756l-.143-.095 33.011-22.078 4.585-3.067zm68.058 31.15c4.42-2.956 8.84-5.912 13.26-8.869 7.868-5.262 15.736-10.524 23.604-15.787 2.64-1.766 5.28-3.532 7.92-5.297.393-.263 1.188-1.052 1.669-1.116.278-.037.379.09.68.291 6.241 4.162 12.471 8.34 18.706 12.51 3.81 2.548 7.619 5.096 11.429 7.643l4.186 2.799c.664.444 1.927.967 2.41 1.611.062.083.222.149.311.208l-8.399 5.599-20.05 13.366-24.364 16.242-20.97 13.98-6.951 4.634-2.164 1.443c-.202.135-.884.771-1.133.755l-.143.095v-50.109zm65.898-44.075l23.512-15.726 3.366-2.251v35.954c-7.837-5.242-15.675-10.484-23.512-15.725l-3.366-2.251zm-19.322-12.925l-14.33-9.584-24.394-16.315-7.077-4.733c-.221-.148-.662-.339-.774-.569-.21-.432 0-1.5 0-1.967v-44.881c0-.833-.216-2.007 0-2.817.03-.113 0-.274 0-.393l8.399 5.599 20.05 13.366 24.364 16.242 20.97 13.979 6.951 4.634 2.164 1.443c.214.143 1.038.509 1.133.755l.143.095-33.014 22.08-4.586 3.067z"/></svg>